<svg xmlns="http://www.w3.org/2000/svg" xmlns:xlink="http://www.w3.org/1999/xlink" viewBox="0 0 40 76" fill="#fff" fill-rule="evenodd" stroke="#000" stroke-linecap="round" stroke-linejoin="round"><use xlink:href="#A" x=".5" y=".5"/><symbol id="A" overflow="visible"><g stroke="none" fill="#231f20" fill-rule="nonzero"><path d="M31.695 62.1l-.225-1.485h.48V62.1h-.255m-11.76 0v-1.5h9.585l.18 1.485h-9.765M8.64 62.1l.195-1.485h9.045V62.1H8.64m-3.615 0v-1.5h1.83l-.225 1.485H5.025m12.87 2.49v-8.79h2.04v8.79h-2.04m0-9.99V49.23h2.055v5.355h-2.055m0-6.555v-5.37h2.04v5.37h-2.04m0-6.57v-5.385h2.04v5.385h-2.04m0-6.555v-5.37h2.04v5.37h-2.04m0-6.555v-5.37h2.025v5.37h-2.025m0-6.54v-5.385h2.025v5.385h-2.025m0-6.57V1.965h2.025v13.29l-2.025-.015"/><path d="M27.78 7.11V5.28H10.125v1.83z"/><path d="M28.8 55.17v-.585h-.06l-.75-5.88v-.675h-.09l-.735-5.955v-.6h-.075l-.765-6.03v-.54h-.075l-.75-5.895v-.63h-.075l-.765-6v-.57h-.06l-.78-6.075v-.495h-.06l-1.05-8.385.735-.525 8.595 58.005-2.055.24L28.8 55.17M6.315 64.335l8.61-58.005.735.525-1.065 8.385h-.075v.645l-.75 5.925h-.075v.525l-.765 6.045h-.075v.54l-.75 5.985h-.09v.63l-.735 5.94h-.09v.675l-.75 5.88h-.075v.555l-.75 6H9.54v.615l-1.2 9.375-2.025-.24"/><path d="M22.23 1.425V0h-6.285v1.425h-5.82v1.77H27.78v-1.77zM14.52 16.41v-1.17h9.3v1.17h-9.3m-.825 6.555V21.81H24.66v1.155H13.695m-.84 6.57V28.38H25.5v1.155H12.855m-.84 6.555v-1.185h14.31v1.185h-14.31m-.825 6.57v-1.185h15.975v1.185H11.19m-.825 6.555V48.03H27.99v1.185H10.365m-.825 6.57v-1.2H28.8v1.2H9.54M0 64.17h38.325V75H0z"/></g></symbol></svg>